<svg xmlns="http://www.w3.org/2000/svg" viewBox="0 0 512 512">
  <defs>
    <radialGradient id="vignette" cx="50%" cy="50%" r="70%">
      <stop offset="60%" stop-color="transparent"/>
      <stop offset="100%" stop-color="#000000" stop-opacity="0.3"/>
    </radialGradient>
    <clipPath id="rounded">
      <rect width="512" height="512" rx="96"/>
    </clipPath>
  </defs>
  <rect width="512" height="512" rx="96" fill="#1a3a1a"/>
  <g clip-path="url(#rounded)">
    <rect x="40" y="64" width="432" height="384" rx="12" fill="#2a6e2a"/>
    <rect x="40" y="64" width="54" height="384" fill="#2e7a2e" opacity="0.5"/>
    <rect x="148" y="64" width="54" height="384" fill="#2e7a2e" opacity="0.5"/>
    <rect x="256" y="64" width="54" height="384" fill="#2e7a2e" opacity="0.5"/>
    <rect x="364" y="64" width="54" height="384" fill="#2e7a2e" opacity="0.5"/>
    <rect x="48" y="72" width="416" height="368" rx="8" fill="none" stroke="#ffffff" stroke-width="6"/>
    <line x1="256" y1="72" x2="256" y2="440" stroke="#ffffff" stroke-width="5"/>
    <circle cx="256" cy="256" r="66" fill="none" stroke="#ffffff" stroke-width="5"/>
    <circle cx="256" cy="256" r="6" fill="#ffffff"/>
    <rect x="48" y="168" width="80" height="176" fill="none" stroke="#ffffff" stroke-width="4"/>
    <rect x="48" y="206" width="36" height="100" fill="none" stroke="#ffffff" stroke-width="4"/>
    <rect x="384" y="168" width="80" height="176" fill="none" stroke="#ffffff" stroke-width="4"/>
    <rect x="428" y="206" width="36" height="100" fill="none" stroke="#ffffff" stroke-width="4"/>
    <rect x="218" y="238" width="68" height="26" rx="10" fill="#f59e0b"/>
    <rect x="286" y="244" width="30" height="14" rx="6" fill="#f59e0b"/>
    <circle cx="244" cy="251" r="8" fill="#1d4d1d"/>
    <circle cx="244" cy="251" r="3.5" fill="#f59e0b"/>
    <circle cx="226" cy="234" r="7" fill="none" stroke="#f59e0b" stroke-width="3.5"/>
    <line x1="226" y1="227" x2="226" y2="212" stroke="#f59e0b" stroke-width="3.5" stroke-linecap="round"/>
    <text x="256" y="414" font-family="Arial Black, sans-serif" font-size="66" font-weight="900" fill="#ffffff" text-anchor="middle">V</text>
    <rect width="512" height="512" rx="96" fill="url(#vignette)"/>
  </g>
</svg>
